<?xml version="1.0" encoding="UTF-8" standalone="no"?>
<svg width="115px" height="115px" viewBox="0 0 115 115" version="1.1" xmlns="http://www.w3.org/2000/svg" xmlns:xlink="http://www.w3.org/1999/xlink" xmlns:sketch="http://www.bohemiancoding.com/sketch/ns">
    <!-- Generator: Sketch 3.3.3 (12072) - http://www.bohemiancoding.com/sketch -->
    <title>JS logo</title>
    <desc>Created with Sketch.</desc>
    <defs></defs>
    <g id="Welcome" stroke="none" stroke-width="1" fill="none" fill-rule="evenodd" sketch:type="MSPage">
        <g id="Desktop-Copy" sketch:type="MSArtboardGroup" transform="translate(-530.000000, -124.000000)" fill="#F5DE19">
            <g id="Header-#1" sketch:type="MSLayerGroup">
                <path d="M530,239 L645,239 L645,124 L530,124 L530,239 Z M592.68018,213.57205 C592.68018,224.770563 586.090473,229.867342 576.506622,229.867342 C567.847432,229.867342 562.820586,225.386486 560.270383,219.988739 L569.067883,214.659369 C570.766464,217.673198 572.301869,220.221847 576.017613,220.221847 C579.570698,220.221847 581.801802,218.831486 581.801802,213.425968 L581.801802,176.837838 L592.68018,176.837838 L592.68018,213.57205 L592.68018,213.57205 Z M618.185315,229.887545 C608.141464,229.887545 601.65277,225.101577 598.47732,218.82786 L607.266532,213.721757 C609.584662,217.506914 612.601081,220.289707 617.935113,220.289707 C622.416486,220.289707 625.279054,218.049797 625.279054,214.955158 C625.279054,211.246667 622.337748,209.932973 617.40518,207.775428 L614.701644,206.615586 C606.897703,203.290428 601.71286,199.125563 601.71286,190.320293 C601.71286,182.208649 607.893333,176.033874 617.551779,176.033874 C624.42795,176.033874 629.371396,178.427117 632.933806,184.693581 L624.511869,190.100653 C622.657883,186.776014 620.657297,185.465946 617.551779,185.465946 C614.383581,185.465946 612.376261,187.475856 612.376261,190.100653 C612.376261,193.345518 614.385653,194.658694 619.026059,196.668604 L621.729595,197.826374 C630.918716,201.766937 636.106667,205.784167 636.106667,214.816329 C636.106667,224.553514 628.457613,229.887545 618.185315,229.887545 L618.185315,229.887545 Z" id="JS-logo" sketch:type="MSShapeGroup"></path>
            </g>
        </g>
    </g>
</svg>